<?xml version="1.0" encoding="UTF-8" standalone="no"?>
<!-- Created with Inkscape (http://www.inkscape.org/) -->

<svg
   width="220"
   height="112"
   viewBox="0 0 58.208333 29.633333"
   version="1.1"
   id="svg1"
   sodipodi:docname="cw-logo.svg"
   inkscape:version="1.4-beta (62f545ba5e, 2024-04-22)"
   xmlns:inkscape="http://www.inkscape.org/namespaces/inkscape"
   xmlns:sodipodi="http://sodipodi.sourceforge.net/DTD/sodipodi-0.dtd"
   xmlns="http://www.w3.org/2000/svg"
   xmlns:svg="http://www.w3.org/2000/svg">
  <sodipodi:namedview
     id="namedview1"
     pagecolor="#505050"
     bordercolor="#eeeeee"
     borderopacity="1"
     inkscape:showpageshadow="0"
     inkscape:pageopacity="0"
     inkscape:pagecheckerboard="0"
     inkscape:deskcolor="#505050"
     inkscape:zoom="3.6383929"
     inkscape:cx="118.59632"
     inkscape:cy="99.631901"
     inkscape:window-width="1920"
     inkscape:window-height="1009"
     inkscape:window-x="1272"
     inkscape:window-y="-8"
     inkscape:window-maximized="1"
     inkscape:current-layer="layer1"
     showguides="true" />
  <defs
     id="defs1" />
  <g
     id="layer1"
     transform="translate(-124.53861,-6.8440218)">
    <text
       xml:space="preserve"
       style="font-weight:900;font-size:10.5833px;line-height:0.9;font-family:Jost;-inkscape-font-specification:'Jost Heavy';text-align:start;letter-spacing:0px;writing-mode:lr-tb;direction:ltr;text-anchor:start;opacity:0.99;fill:#ffffff;stroke:#ffffff;stroke-width:0.55256;stroke-linejoin:round"
       x="151.97643"
       y="21.218319"
       id="text2"><tspan
         id="tspan1"
         style="font-style:normal;font-variant:normal;font-weight:bold;font-stretch:normal;font-size:10.5833px;font-family:'Bebas Neue';-inkscape-font-specification:'Bebas Neue Bold';fill:#ffffff;stroke:none;stroke-width:0.55256"
         x="151.97643"
         y="21.218319" /><tspan
         style="font-style:normal;font-variant:normal;font-weight:bold;font-stretch:normal;font-size:10.5833px;font-family:'Bebas Neue';-inkscape-font-specification:'Bebas Neue Bold';fill:#ffffff;stroke:none;stroke-width:0.55256"
         x="151.97643"
         y="30.843994"
         id="tspan2">Wilson</tspan></text>
    <text
       xml:space="preserve"
       style="font-weight:900;font-size:10.5833px;line-height:0.9;font-family:Jost;-inkscape-font-specification:'Jost Heavy';text-align:start;letter-spacing:0px;writing-mode:lr-tb;direction:ltr;text-anchor:start;opacity:0.99;fill:#ffffff;stroke:#ffffff;stroke-width:0.55256;stroke-linejoin:round"
       x="151.8071"
       y="21.215961"
       id="text10"><tspan
         style="font-style:normal;font-variant:normal;font-weight:bold;font-stretch:normal;font-size:10.5833px;font-family:'Bebas Neue';-inkscape-font-specification:'Bebas Neue Bold';fill:#ffffff;stroke:none;stroke-width:0.55256"
         x="151.8071"
         y="21.215961"
         id="tspan10"><tspan
           dy="1.3"
           id="tspan11"
           style="font-style:normal;font-variant:normal;font-weight:bold;font-stretch:normal;font-size:10.5833px;font-family:'Bebas Neue';-inkscape-font-specification:'Bebas Neue Bold';fill:#ffffff;stroke:none;stroke-width:0.55256">Cameron</tspan></tspan></text>
    <path
       id="path2"
       style="opacity:0.99;fill:#ffffff;stroke-width:0.663321;stroke-linejoin:round;stroke-dasharray:none"
       d="m 136.58417,12.39231 c 1.0378,-0.366746 2.47392,-0.243333 3.20765,0.275656 0.73372,0.518988 0.48721,1.23702 -0.5506,1.603759 -1.03782,0.366745 -2.47392,0.243334 -3.20765,-0.275654 -0.73373,-0.518989 -0.48721,-1.237016 0.5506,-1.603761 z" />
    <path
       id="path4"
       style="opacity:0.99;fill:#ffffff;stroke-width:0.663321;stroke-linejoin:round;stroke-dasharray:none"
       d="m 128.54447,23.315709 c 1.6e-4,-1.100703 0.5951,-1.572285 1.32883,-1.053297 0.73372,0.518989 1.32839,1.832016 1.32822,2.932712 -1.6e-4,1.10071 -0.5951,1.572287 -1.32882,1.053298 -0.73373,-0.518988 -1.3284,-1.83201 -1.32823,-2.932713 z" />
    <path
       id="path8"
       style="opacity:0.99;fill:#ffffff;stroke-width:0.663321;stroke-linejoin:round;stroke-dasharray:none"
       d="m 141.3593,26.067416 c 1.6e-4,-1.100703 0.84161,-2.290311 1.87942,-2.657056 1.0378,-0.366752 1.87898,0.228249 1.87882,1.328952 -1.7e-4,1.100703 -0.84162,2.290305 -1.87942,2.657057 -1.03781,0.366745 -1.879,-0.228251 -1.87882,-1.328953 z" />
    <path
       id="path9"
       style="opacity:0.99;fill:#ffffff;stroke-width:0.663321;stroke-linejoin:round;stroke-dasharray:none"
       d="m 150.35555,14.45487 -2.61906,0.925297 -12.27635,4.336929 -10.40828,-7.362114 14.89593,-5.261857 z m 0.38365,0.568116 -0.005,15.905674 -14.99403,5.299585 0.001,-15.90453 z m -9.90363,-2.723742 c -1.50889,-1.066025 -4.0913,-1.615619 -6.67329,-1.419515 -1.2543,1.151357 -1.09543,2.558837 0.40986,3.632681 1.51677,1.064103 4.10475,1.608713 6.68657,1.407482 1.24095,-1.149674 1.07707,-2.550718 -0.42314,-3.620648 z m 6.27464,10.290685 c -1.02616,-0.676455 -2.40462,-0.799053 -3.87152,-0.286713 -2.13255,0.754871 -4.08161,2.721076 -5.03711,5.080846 0.94392,1.704664 2.89502,2.309679 5.03632,1.562086 2.13367,-0.762799 4.08001,-2.735639 5.02861,-5.097973 -0.29625,-0.528781 -0.68986,-0.950765 -1.1563,-1.258246 z m -12.03365,-2.331668 -3.6e-4,7.206579 -6.9e-4,8.590115 -10.40669,-7.360992 -1e-5,-15.79744 z m -5.20314,0.897022 c -1.50769,-1.065179 -2.88628,-0.762477 -3.5619,0.782059 0.66725,2.510539 2.04687,4.781492 3.56075,5.861409 1.50847,1.05824 2.8845,0.745595 3.55524,-0.807405 -0.67013,-2.501443 -2.04559,-4.760271 -3.55409,-5.836063 z" />
  </g>
</svg>
