<?xml version="1.0" encoding="UTF-8" standalone="no"?>
<svg
   viewBox="0 0 448 448"
   version="1.1"
   id="svg1"
   sodipodi:docname="square-instagram-brands-solid-full.svg"
   inkscape:version="1.4 (86a8ad7, 2024-10-11)"
   width="448"
   height="448"
   xmlns:inkscape="http://www.inkscape.org/namespaces/inkscape"
   xmlns:sodipodi="http://sodipodi.sourceforge.net/DTD/sodipodi-0.dtd"
   xmlns="http://www.w3.org/2000/svg"
   xmlns:svg="http://www.w3.org/2000/svg">
  <defs
     id="defs1" />
  <sodipodi:namedview
     id="namedview1"
     pagecolor="#ffffff"
     bordercolor="#000000"
     borderopacity="0.25"
     inkscape:showpageshadow="2"
     inkscape:pageopacity="0.0"
     inkscape:pagecheckerboard="0"
     inkscape:deskcolor="#d1d1d1"
     inkscape:zoom="1.2078125"
     inkscape:cx="224.37257"
     inkscape:cy="223.9586"
     inkscape:window-width="1920"
     inkscape:window-height="991"
     inkscape:window-x="-9"
     inkscape:window-y="-9"
     inkscape:window-maximized="1"
     inkscape:current-layer="svg1" />
  <!--!Font Awesome Free 7.1.0 by @fontawesome - https://fontawesome.com License - https://fontawesome.com/license/free Copyright 2025 Fonticons, Inc.-->
  <path
     d="m 194.4,179.7 c -16.4,10.3 -25.9,28.8 -24.9,48.1 1.1,19.4 12.7,36.6 30.1,45.1 17.5,8.4 38.2,6.6 54,-4.6 16.4,-10.3 25.9,-28.8 24.9,-48.1 -1.1,-19.4 -12.7,-36.6 -30.1,-45.1 -17.5,-8.4 -38.2,-6.6 -54,4.6 z m 142.3,-68.4 c -5.2,-5.2 -11.5,-9.3 -18.4,-12 -18.1,-7.1 -57.6,-6.8 -83.1,-6.5 -4.1,0 -7.9,0.1 -11.2,0.1 -3.3,0 -7.2,0 -11.4,-0.1 -25.5,-0.3 -64.8,-0.7 -82.9,6.5 -6.9,2.7 -13.1,6.8 -18.4,12 -5.3,5.2 -9.3,11.5 -12,18.4 -7.1,18.1 -6.7,57.7 -6.5,83.2 0,4.1 0.1,7.9 0.1,11.1 0,3.2 0,7 -0.1,11.1 -0.2,25.5 -0.6,65.1 6.5,83.2 2.7,6.9 6.8,13.1 12,18.4 5.2,5.3 11.5,9.3 18.4,12 18.1,7.1 57.6,6.8 83.1,6.5 4.1,0 7.9,-0.1 11.2,-0.1 3.3,0 7.2,0 11.4,0.1 25.5,0.3 64.8,0.7 82.9,-6.5 6.9,-2.7 13.1,-6.8 18.4,-12 5.3,-5.2 9.3,-11.5 12,-18.4 7.2,-18 6.8,-57.4 6.5,-83 0,-4.2 -0.1,-8.1 -0.1,-11.4 0,-3.3 0,-7.1 0.1,-11.4 0.3,-25.5 0.7,-64.9 -6.5,-83 -2.7,-6.9 -6.8,-13.1 -12,-18.4 z m -67.1,44.5 c 18.1,12.1 30.6,30.9 34.9,52.2 4.3,21.3 -0.2,43.5 -12.3,61.6 -6,9 -13.7,16.6 -22.6,22.6 -8.9,6 -19,10.1 -29.6,12.2 -21.3,4.2 -43.5,-0.2 -61.6,-12.3 -18.1,-12.1 -30.6,-30.9 -34.9,-52.2 -4.3,-21.3 0.2,-43.5 12.2,-61.6 12,-18.1 30.9,-30.6 52.2,-34.9 21.3,-4.3 43.5,0.2 61.6,12.2 h 0.1 z m 29.2,-1.3 c -3.1,-2.1 -5.6,-5.1 -7.1,-8.6 -1.5,-3.5 -1.8,-7.3 -1.1,-11.1 0.7,-3.8 2.6,-7.1 5.2,-9.8 2.6,-2.7 6.1,-4.5 9.8,-5.2 3.7,-0.7 7.6,-0.4 11.1,1.1 3.5,1.5 6.5,3.9 8.6,7 2.1,3.1 3.2,6.8 3.2,10.6 0,2.5 -0.5,5 -1.4,7.3 -0.9,2.3 -2.4,4.4 -4.1,6.2 -1.7,1.8 -3.9,3.2 -6.2,4.2 -2.3,1 -4.8,1.5 -7.3,1.5 -3.8,0 -7.5,-1.1 -10.6,-3.2 z M 448,64 C 448,28.7 419.3,0 384,0 H 64 C 28.7,0 0,28.7 0,64 v 320 c 0,35.3 28.7,64 64,64 h 320 c 35.3,0 64,-28.7 64,-64 z m -91,293 c -18.7,18.7 -41.4,24.6 -67,25.9 -26.4,1.5 -105.6,1.5 -132,0 -25.6,-1.3 -48.3,-7.2 -67,-25.9 -18.7,-18.7 -24.6,-41.4 -25.8,-67 -1.5,-26.4 -1.5,-105.6 0,-132 1.3,-25.6 7.1,-48.3 25.8,-67 18.7,-18.7 41.5,-24.6 67,-25.8 26.4,-1.5 105.6,-1.5 132,0 25.6,1.3 48.3,7.1 67,25.8 18.7,18.7 24.6,41.4 25.8,67 1.5,26.3 1.5,105.4 0,131.9 -1.3,25.6 -7.1,48.3 -25.8,67 z"
     id="path1"
     style="fill:#ffffff" />
</svg>
