<?xml version="1.0" encoding="UTF-8" standalone="no"?>
<svg
   viewBox="0 0 448 448"
   version="1.1"
   id="svg1"
   sodipodi:docname="square-dribbble-brands-solid-full.svg"
   inkscape:version="1.4 (86a8ad7, 2024-10-11)"
   width="448"
   height="448"
   xmlns:inkscape="http://www.inkscape.org/namespaces/inkscape"
   xmlns:sodipodi="http://sodipodi.sourceforge.net/DTD/sodipodi-0.dtd"
   xmlns="http://www.w3.org/2000/svg"
   xmlns:svg="http://www.w3.org/2000/svg">
  <defs
     id="defs1" />
  <sodipodi:namedview
     id="namedview1"
     pagecolor="#ffffff"
     bordercolor="#000000"
     borderopacity="0.25"
     inkscape:showpageshadow="2"
     inkscape:pageopacity="0.0"
     inkscape:pagecheckerboard="0"
     inkscape:deskcolor="#d1d1d1"
     inkscape:zoom="1.2078125"
     inkscape:cx="224.37257"
     inkscape:cy="223.9586"
     inkscape:window-width="1920"
     inkscape:window-height="991"
     inkscape:window-x="-9"
     inkscape:window-y="-9"
     inkscape:window-maximized="1"
     inkscape:current-layer="svg1" />
  <!--!Font Awesome Free 7.1.0 by @fontawesome - https://fontawesome.com License - https://fontawesome.com/license/free Copyright 2025 Fonticons, Inc.-->
  <path
     d="m 165.9,100.5 c -38.3,18 -66.8,53.3 -75.7,95.7 6.1,0.1 62.4,0.3 126.4,-16.7 -22.7,-40.2 -47.1,-74.1 -50.7,-79 z M 192,91.4 c 3.8,5.1 28.6,38.9 51,80 48.6,-18.3 69.1,-45.9 71.6,-49.4 C 281,92.2 235.3,80.9 192,91.4 Z M 277.4,350 c -2,-12 -10,-53.8 -29.2,-103.6 -55.1,18.8 -93.8,56.4 -108.1,85.6 40.5,31.6 93.3,36.7 137.3,18 z M 227.8,200.6 C 159.6,221 93.4,220.2 87.4,220 v 4.2 c 0,35.1 13.3,67.1 35.1,91.4 22.2,-37.9 67.1,-77.9 116.5,-91.8 -3.4,-7.8 -7.2,-15.5 -11.1,-23.2 z m 72.5,136.9 c 30.7,-20.7 52.5,-53.6 58.6,-91.6 -4.6,-1.5 -42.3,-12.7 -85.1,-5.8 17.9,49.1 25.1,89.1 26.5,97.4 z m -34.8,-119 c 45.5,-5.7 90.7,3.4 95.2,4.4 -0.3,-32.3 -11.8,-61.9 -30.9,-85.1 -2.9,3.9 -25.8,33.2 -76.3,53.9 4.8,9.8 8.3,17.8 12,26.8 z M 384,0 H 64 C 28.7,0 0,28.7 0,64 v 320 c 0,35.3 28.7,64 64,64 h 320 c 35.3,0 64,-28.7 64,-64 V 64 C 448,28.7 419.3,0 384,0 Z M 224,64 c 88.4,0 160,71.6 160,160 0,88.4 -71.6,160 -160,160 C 135.6,384 64,312.4 64,224 64,135.6 135.6,64 224,64 Z"
     id="path1"
     style="fill:#ffffff" />
</svg>
