<?xml version="1.0" encoding="UTF-8" standalone="no"?>
<svg
   viewBox="0 0 448 448"
   version="1.1"
   id="svg1"
   sodipodi:docname="square-behance-brands-solid-full.svg"
   inkscape:version="1.4 (86a8ad7, 2024-10-11)"
   width="448"
   height="448"
   xmlns:inkscape="http://www.inkscape.org/namespaces/inkscape"
   xmlns:sodipodi="http://sodipodi.sourceforge.net/DTD/sodipodi-0.dtd"
   xmlns="http://www.w3.org/2000/svg"
   xmlns:svg="http://www.w3.org/2000/svg">
  <defs
     id="defs1" />
  <sodipodi:namedview
     id="namedview1"
     pagecolor="#ffffff"
     bordercolor="#000000"
     borderopacity="0.25"
     inkscape:showpageshadow="2"
     inkscape:pageopacity="0.0"
     inkscape:pagecheckerboard="0"
     inkscape:deskcolor="#d1d1d1"
     inkscape:zoom="1.2078125"
     inkscape:cx="224.37257"
     inkscape:cy="223.9586"
     inkscape:window-width="1920"
     inkscape:window-height="991"
     inkscape:window-x="-9"
     inkscape:window-y="-9"
     inkscape:window-maximized="1"
     inkscape:current-layer="svg1" />
  <!--!Font Awesome Free 7.1.0 by @fontawesome - https://fontawesome.com License - https://fontawesome.com/license/free Copyright 2025 Fonticons, Inc.-->
  <path
     d="m 155.3,286.4 c 17.2,0 31.2,-6.1 31.2,-25.4 0,-19.7 -11.7,-27.4 -30.3,-27.5 h -46 v 52.9 z m -5.4,-129.6 h -39.6 v 44.8 H 153 c 15.1,0 25.8,-6.6 25.8,-22.9 0,-17.7 -13.7,-21.9 -28.9,-21.9 z m 129.5,74.8 h 62.2 c -1.7,-18.5 -11.3,-29.7 -30.5,-29.7 -18.3,0 -30.5,11.4 -31.7,29.7 z M 384,0 H 64 C 28.7,0 0,28.7 0,64 v 320 c 0,35.3 28.7,64 64,64 h 320 c 35.3,0 64,-28.7 64,-64 V 64 C 448,28.7 419.3,0 384,0 Z m -34.5,153 h -77.8 v -18.9 h 77.8 z m -155.8,58.7 c 23.6,6.7 35,27.5 35,51.6 0,39 -32.7,55.7 -67.6,55.9 H 68 v -192 h 90.5 c 32.9,0 61.4,9.3 61.4,47.5 0,19.3 -9,28.8 -26.2,37 z m 118.7,-38.6 c 43.5,0 67.6,34.3 67.6,75.4 0,1.6 -0.1,3.3 -0.2,5 0,0.8 -0.1,1.5 -0.1,2.2 H 279.5 c 0,22.2 11.7,35.3 34.1,35.3 11.6,0 26.5,-6.2 30.2,-18.1 h 33.7 c -10.4,31.9 -31.9,46.8 -65.1,46.8 -43.8,0 -71.1,-29.7 -71.1,-73 0,-41.8 28.7,-73.6 71.1,-73.6 z"
     id="path1"
     style="fill:#ffffff" />
</svg>
